{
    "asset" : {
        "generator" : "Khronos glTF Blender I/O v1.6.16",
        "version" : "2.0"
    },
    "scene" : 0,
    "scenes" : [
        {
            "name" : "Scene",
            "nodes" : [
                18
            ]
        }
    ],
    "nodes" : [
        {
            "name" : "Bone.004",
            "rotation" : [
                0.03218301385641098,
                1.1052445037743747e-14,
                7.673024882137724e-09,
                0.9994819760322571
            ],
            "scale" : [
                0.9999998807907104,
                0.9999997615814209,
                0.9999997615814209
            ],
            "translation" : [
                -8.2568115247815075e-16,
                0.1535438895225525,
                3.23414184322246e-10
            ]
        },
        {
            "children" : [
                0
            ],
            "name" : "Bone.003",
            "rotation" : [
                0.05811126157641411,
                -1.4095896250633597e-14,
                1.385479553306368e-08,
                0.9983101487159729
            ],
            "scale" : [
                1.0000001192092896,
                1.000000238418579,
                1
            ],
            "translation" : [
                -2.1305719571950744e-14,
                0.21769674122333527,
                3.484259281094637e-08
            ]
        },
        {
            "name" : "d_l",
            "rotation" : [
                0.022431517019867897,
                -0.041779641062021255,
                -0.14851588010787964,
                0.987772524356842
            ],
            "scale" : [
                1,
                0.9999998211860657,
                0.9999997615814209
            ],
            "translation" : [
                -2.301492401102223e-07,
                0.33628422021865845,
                3.806648010140634e-07
            ]
        },
        {
            "children" : [
                2
            ],
            "name" : "c_l",
            "rotation" : [
                0.1708890050649643,
                0.0005330870044417679,
                0.0006765867001377046,
                0.9852899312973022
            ],
            "scale" : [
                0.9999999403953552,
                1.0000001192092896,
                0.9999996423721313
            ],
            "translation" : [
                1.4435499906539917e-08,
                0.3039342761039734,
                -9.313225746154785e-09
            ]
        },
        {
            "children" : [
                3
            ],
            "name" : "b_l",
            "rotation" : [
                -0.06029169261455536,
                0.027053318917751312,
                -0.5639063715934753,
                0.8231905102729797
            ],
            "scale" : [
                0.9999998807907104,
                0.9999998807907104,
                0.9999999403953552
            ],
            "translation" : [
                9.103722931058655e-08,
                0.09568332135677338,
                -2.269287424638833e-09
            ]
        },
        {
            "children" : [
                4
            ],
            "name" : "a_l",
            "rotation" : [
                -0.0035259583964943886,
                -0.001245105522684753,
                -0.7401499152183533,
                0.6724315881729126
            ],
            "scale" : [
                1.0000001192092896,
                1.0000001192092896,
                0.9999999403953552
            ],
            "translation" : [
                0.08059118688106537,
                0.1810818463563919,
                -0.001109513221308589
            ]
        },
        {
            "name" : "d_r",
            "rotation" : [
                0.022431546822190285,
                0.041779737919569016,
                0.1485159546136856,
                0.9877724051475525
            ],
            "scale" : [
                0.9999998211860657,
                1.0000001192092896,
                0.9999997615814209
            ],
            "translation" : [
                3.2958064366539475e-07,
                0.3362847566604614,
                2.05391955887535e-07
            ]
        },
        {
            "children" : [
                6
            ],
            "name" : "c_r",
            "rotation" : [
                0.1708890050649643,
                -0.0005331177380867302,
                -0.0006766665610484779,
                0.9852899312973022
            ],
            "scale" : [
                1.0000001192092896,
                0.9999998211860657,
                0.9999997615814209
            ],
            "translation" : [
                4.402210151965846e-08,
                0.30393436551094055,
                5.04239938692308e-09
            ]
        },
        {
            "children" : [
                7
            ],
            "name" : "b_r",
            "rotation" : [
                -0.060291729867458344,
                -0.027053380385041237,
                0.5639063715934753,
                0.8231905698776245
            ],
            "scale" : [
                0.9999997019767761,
                1,
                1.0000001192092896
            ],
            "translation" : [
                -2.462377679535166e-08,
                0.09568334370851517,
                6.454783818554688e-09
            ]
        },
        {
            "children" : [
                8
            ],
            "name" : "a_r",
            "rotation" : [
                -0.0035261705052107573,
                0.0012449815403670073,
                0.7401499152183533,
                0.6724315881729126
            ],
            "scale" : [
                1.0000001192092896,
                1.0000001192092896,
                1
            ],
            "translation" : [
                -0.08059117943048477,
                0.1810818463563919,
                -0.001109558972530067
            ]
        },
        {
            "children" : [
                1,
                5,
                9
            ],
            "name" : "Bone.002",
            "rotation" : [
                0.051541559398174286,
                1.4368733186240733e-14,
                1.228846002732098e-08,
                0.9986709356307983
            ],
            "scale" : [
                1,
                0.9999997019767761,
                0.9999999403953552
            ],
            "translation" : [
                2.823166064802856e-14,
                0.2701888680458069,
                -6.470300206729007e-08
            ]
        },
        {
            "children" : [
                10
            ],
            "name" : "Bone.001",
            "rotation" : [
                -0.11343333125114441,
                1.18439849927654e-07,
                -1.35222997244e-08,
                0.993545651435852
            ],
            "scale" : [
                0.9999999403953552,
                1.0000001192092896,
                0.9999999403953552
            ],
            "translation" : [
                -3.552713678800501e-15,
                0.19573362171649933,
                3.7689172671662163e-08
            ]
        },
        {
            "name" : "f_l",
            "rotation" : [
                0.06544755399227142,
                -1.4409978632556886e-07,
                -3.1692101742919476e-07,
                0.9978560209274292
            ],
            "scale" : [
                0.9999997615814209,
                0.9999997615814209,
                0.9999998807907104
            ],
            "translation" : [
                -1.5098414962722018e-08,
                0.426962673664093,
                -5.827443771977414e-08
            ]
        },
        {
            "children" : [
                12
            ],
            "name" : "e_l",
            "rotation" : [
                0.7019007802009583,
                -0.019434120506048203,
                0.7068371176719666,
                0.08566733449697495
            ],
            "scale" : [
                0.9999999403953552,
                0.9999999403953552,
                0.9999997615814209
            ],
            "translation" : [
                0.15009082853794098,
                0.01772887632250786,
                -0.001670223195105791
            ]
        },
        {
            "name" : "f_r",
            "rotation" : [
                0.06544755399227142,
                1.4409978632556886e-07,
                3.1692101742919476e-07,
                0.9978560209274292
            ],
            "scale" : [
                0.9999997615814209,
                0.9999997615814209,
                0.9999998807907104
            ],
            "translation" : [
                1.5098414962722018e-08,
                0.426962673664093,
                -5.827443771977414e-08
            ]
        },
        {
            "children" : [
                14
            ],
            "name" : "e_r",
            "rotation" : [
                0.7019007802009583,
                0.019434120506048203,
                -0.7068371176719666,
                0.08566733449697495
            ],
            "scale" : [
                0.9999999403953552,
                0.9999999403953552,
                0.9999997615814209
            ],
            "translation" : [
                -0.15009082853794098,
                0.01772887632250786,
                -0.001670223195105791
            ]
        },
        {
            "children" : [
                11,
                13,
                15
            ],
            "name" : "Bone",
            "rotation" : [
                0.04694946110248566,
                0,
                0,
                0.9988973736763
            ],
            "scale" : [
                1.0000001192092896,
                1,
                1
            ],
            "translation" : [
                0,
                -0.03169526159763336,
                6.050022260950527e-09
            ]
        },
        {
            "mesh" : 0,
            "name" : "ps1_skeleton",
            "skin" : 0
        },
        {
            "children" : [
                17,
                16
            ],
            "name" : "Skeleton",
            "translation" : [
                0,
                1.0026830434799194,
                0
            ]
        }
    ],
    "materials" : [
        {
            "alphaMode" : "BLEND",
            "doubleSided" : true,
            "name" : "Skeleton256",
            "pbrMetallicRoughness" : {
                "baseColorTexture" : {
                    "index" : 0
                },
                "metallicFactor" : 0
            }
        }
    ],
    "meshes" : [
        {
            "name" : "Cube.001",
            "primitives" : [
                {
                    "attributes" : {
                        "POSITION" : 0,
                        "NORMAL" : 1,
                        "TEXCOORD_0" : 2,
                        "JOINTS_0" : 3,
                        "WEIGHTS_0" : 4
                    },
                    "indices" : 5,
                    "material" : 0
                }
            ]
        }
    ],
    "textures" : [
        {
            "sampler" : 0,
            "source" : 0
        }
    ],
    "images" : [
        {
            "bufferView" : 6,
            "mimeType" : "image/png",
            "name" : "ps1_skeleton_256x256_transp"
        }
    ],
    "skins" : [
        {
            "inverseBindMatrices" : 6,
            "joints" : [
                16,
                11,
                10,
                1,
                0,
                5,
                4,
                3,
                2,
                9,
                8,
                7,
                6,
                13,
                12,
                15,
                14
            ],
            "name" : "Skeleton"
        }
    ],
    "accessors" : [
        {
            "bufferView" : 0,
            "componentType" : 5126,
            "count" : 1222,
            "max" : [
                0.36776718497276306,
                1.976628065109253,
                0.17232069373130798
            ],
            "min" : [
                -0.36776718497276306,
                0.0009130239486694336,
                -0.11387939751148224
            ],
            "type" : "VEC3"
        },
        {
            "bufferView" : 1,
            "componentType" : 5126,
            "count" : 1222,
            "type" : "VEC3"
        },
        {
            "bufferView" : 2,
            "componentType" : 5126,
            "count" : 1222,
            "type" : "VEC2"
        },
        {
            "bufferView" : 3,
            "componentType" : 5121,
            "count" : 1222,
            "type" : "VEC4"
        },
        {
            "bufferView" : 4,
            "componentType" : 5126,
            "count" : 1222,
            "type" : "VEC4"
        },
        {
            "bufferView" : 5,
            "componentType" : 5123,
            "count" : 2376,
            "type" : "SCALAR"
        },
        {
            "bufferView" : 7,
            "componentType" : 5126,
            "count" : 17,
            "type" : "MAT4"
        }
    ],
    "bufferViews" : [
        {
            "buffer" : 0,
            "byteLength" : 14664,
            "byteOffset" : 0
        },
        {
            "buffer" : 0,
            "byteLength" : 14664,
            "byteOffset" : 14664
        },
        {
            "buffer" : 0,
            "byteLength" : 9776,
            "byteOffset" : 29328
        },
        {
            "buffer" : 0,
            "byteLength" : 4888,
            "byteOffset" : 39104
        },
        {
            "buffer" : 0,
            "byteLength" : 19552,
            "byteOffset" : 43992
        },
        {
            "buffer" : 0,
            "byteLength" : 4752,
            "byteOffset" : 63544
        },
        {
            "buffer" : 0,
            "byteLength" : 74810,
            "byteOffset" : 68296
        },
        {
            "buffer" : 0,
            "byteLength" : 1088,
            "byteOffset" : 143108
        }
    ],
    "samplers" : [
        {
            "magFilter" : 9729,
            "minFilter" : 9987
        }
    ],
    "buffers" : [
        {
            "byteLength" : 144196,
            "uri" : "data:application/octet-stream;base64,"
        }
    ]
}
