{
    "asset" : {
        "generator" : "Khronos glTF Blender I/O v1.6.16",
        "version" : "2.0"
    },
    "scene" : 0,
    "scenes" : [
        {
            "name" : "Scene",
            "nodes" : [
                0,
                1,
                2,
                3,
                4,
                5,
                6,
                7,
                8,
                9
            ]
        }
    ],
    "nodes" : [
        {
            "mesh" : 0,
            "name" : "Cliff",
            "scale" : [
                0.477749764919281,
                0.477749764919281,
                0.477749764919281
            ],
            "translation" : [
                0,
                0.4736381471157074,
                0
            ]
        },
        {
            "mesh" : 1,
            "name" : "Tree",
            "scale" : [
                0.18928439915180206,
                0.18928439915180206,
                0.18928439915180206
            ],
            "translation" : [
                0,
                0.18698827922344208,
                0
            ]
        },
        {
            "mesh" : 2,
            "name" : "Bush",
            "scale" : [
                0.477749764919281,
                0.477749764919281,
                0.477749764919281
            ],
            "translation" : [
                0,
                0.4736381471157074,
                0
            ]
        },
        {
            "mesh" : 3,
            "name" : "lilTree",
            "scale" : [
                -0.022266719490289688,
                -0.022266719490289688,
                -0.022266719490289688
            ],
            "translation" : [
                0,
                0.0033185482025146484,
                0
            ]
        },
        {
            "mesh" : 4,
            "name" : "Rock",
            "scale" : [
                0.477749764919281,
                0.477749764919281,
                0.477749764919281
            ],
            "translation" : [
                0,
                0.4736381471157074,
                0
            ]
        },
        {
            "mesh" : 5,
            "name" : "Stone",
            "scale" : [
                0.477749764919281,
                0.477749764919281,
                0.477749764919281
            ],
            "translation" : [
                0,
                0.4736381471157074,
                0
            ]
        },
        {
            "mesh" : 6,
            "name" : "Stonewall",
            "scale" : [
                0.477749764919281,
                0.477749764919281,
                0.477749764919281
            ],
            "translation" : [
                0,
                0.4736381471157074,
                0
            ]
        },
        {
            "mesh" : 7,
            "name" : "Leaf",
            "scale" : [
                0.477749764919281,
                0.477749764919281,
                0.477749764919281
            ],
            "translation" : [
                0,
                -0.004111647605895996,
                0
            ]
        },
        {
            "mesh" : 8,
            "name" : "Grass",
            "scale" : [
                0.477749764919281,
                0.477749764919281,
                0.477749764919281
            ],
            "translation" : [
                0,
                -0.004111647605895996,
                0
            ]
        },
        {
            "mesh" : 9,
            "name" : "Plant",
            "rotation" : [
                -0.44692301750183105,
                0,
                0,
                0.8945724368095398
            ],
            "scale" : [
                0.477749764919281,
                0.4777497947216034,
                0.4777497947216034
            ],
            "translation" : [
                0,
                -0.012088596820831299,
                0
            ]
        }
    ],
    "materials" : [
        {
            "doubleSided" : true,
            "name" : "Stone",
            "pbrMetallicRoughness" : {
                "baseColorTexture" : {
                    "index" : 0
                },
                "metallicFactor" : 0
            }
        },
        {
            "doubleSided" : true,
            "name" : "Tree.001",
            "pbrMetallicRoughness" : {
                "baseColorTexture" : {
                    "index" : 1
                },
                "metallicFactor" : 0
            }
        },
        {
            "doubleSided" : true,
            "name" : "Bush.001",
            "pbrMetallicRoughness" : {
                "baseColorTexture" : {
                    "index" : 2
                },
                "metallicFactor" : 0
            }
        },
        {
            "doubleSided" : true,
            "name" : "Stone.001",
            "pbrMetallicRoughness" : {
                "baseColorTexture" : {
                    "index" : 3
                },
                "metallicFactor" : 0
            }
        },
        {
            "doubleSided" : true,
            "name" : "Stonewall.001",
            "pbrMetallicRoughness" : {
                "baseColorTexture" : {
                    "index" : 4
                },
                "metallicFactor" : 0
            }
        },
        {
            "doubleSided" : true,
            "name" : "Leaf.001",
            "pbrMetallicRoughness" : {
                "baseColorTexture" : {
                    "index" : 5
                },
                "metallicFactor" : 0
            }
        },
        {
            "doubleSided" : true,
            "name" : "Grass.001",
            "pbrMetallicRoughness" : {
                "baseColorTexture" : {
                    "index" : 6
                },
                "metallicFactor" : 0
            }
        }
    ],
    "meshes" : [
        {
            "name" : "Cube.007",
            "primitives" : [
                {
                    "attributes" : {
                        "POSITION" : 0,
                        "NORMAL" : 1,
                        "TEXCOORD_0" : 2
                    },
                    "indices" : 3,
                    "material" : 0
                }
            ]
        },
        {
            "name" : "Cube.002",
            "primitives" : [
                {
                    "attributes" : {
                        "POSITION" : 4,
                        "NORMAL" : 5,
                        "TEXCOORD_0" : 6
                    },
                    "indices" : 7,
                    "material" : 1
                }
            ]
        },
        {
            "name" : "Cube.008",
            "primitives" : [
                {
                    "attributes" : {
                        "POSITION" : 8,
                        "NORMAL" : 9,
                        "TEXCOORD_0" : 10
                    },
                    "indices" : 11,
                    "material" : 2
                }
            ]
        },
        {
            "name" : "Cube.010",
            "primitives" : [
                {
                    "attributes" : {
                        "POSITION" : 12,
                        "NORMAL" : 13,
                        "TEXCOORD_0" : 14
                    },
                    "indices" : 15,
                    "material" : 1
                }
            ]
        },
        {
            "name" : "Cube.011",
            "primitives" : [
                {
                    "attributes" : {
                        "POSITION" : 16,
                        "NORMAL" : 17,
                        "TEXCOORD_0" : 18
                    },
                    "indices" : 19,
                    "material" : 3
                }
            ]
        },
        {
            "name" : "Cube.012",
            "primitives" : [
                {
                    "attributes" : {
                        "POSITION" : 20,
                        "NORMAL" : 21,
                        "TEXCOORD_0" : 22
                    },
                    "indices" : 23,
                    "material" : 3
                }
            ]
        },
        {
            "name" : "Cube.014",
            "primitives" : [
                {
                    "attributes" : {
                        "POSITION" : 24,
                        "NORMAL" : 25,
                        "TEXCOORD_0" : 26
                    },
                    "indices" : 27,
                    "material" : 4
                }
            ]
        },
        {
            "name" : "Plane.003",
            "primitives" : [
                {
                    "attributes" : {
                        "POSITION" : 28,
                        "NORMAL" : 29,
                        "TEXCOORD_0" : 30
                    },
                    "indices" : 31,
                    "material" : 5
                }
            ]
        },
        {
            "name" : "Plane.004",
            "primitives" : [
                {
                    "attributes" : {
                        "POSITION" : 32,
                        "NORMAL" : 33,
                        "TEXCOORD_0" : 34
                    },
                    "indices" : 35,
                    "material" : 6
                }
            ]
        },
        {
            "name" : "Plane.005",
            "primitives" : [
                {
                    "attributes" : {
                        "POSITION" : 36,
                        "NORMAL" : 37,
                        "TEXCOORD_0" : 38
                    },
                    "indices" : 39,
                    "material" : 5
                }
            ]
        }
    ],
    "textures" : [
        {
            "sampler" : 0,
            "source" : 0
        },
        {
            "sampler" : 0,
            "source" : 1
        },
        {
            "sampler" : 0,
            "source" : 2
        },
        {
            "sampler" : 0,
            "source" : 0
        },
        {
            "sampler" : 0,
            "source" : 3
        },
        {
            "sampler" : 0,
            "source" : 4
        },
        {
            "sampler" : 0,
            "source" : 4
        }
    ],
    "images" : [
        {
            "bufferView" : 4,
            "mimeType" : "image/jpeg",
            "name" : "stone"
        },
        {
            "bufferView" : 9,
            "mimeType" : "image/jpeg",
            "name" : "wood"
        },
        {
            "bufferView" : 14,
            "mimeType" : "image/jpeg",
            "name" : "treeleaf"
        },
        {
            "bufferView" : 31,
            "mimeType" : "image/jpeg",
            "name" : "stonewall"
        },
        {
            "bufferView" : 36,
            "mimeType" : "image/jpeg",
            "name" : "leaf"
        }
    ],
    "accessors" : [
        {
            "bufferView" : 0,
            "componentType" : 5126,
            "count" : 89,
            "max" : [
                1.6347789764404297,
                5.239402770996094,
                5.281410217285156
            ],
            "min" : [
                -1.626142978668213,
                -1.0000015497207642,
                -5.4276018142700195
            ],
            "type" : "VEC3"
        },
        {
            "bufferView" : 1,
            "componentType" : 5126,
            "count" : 89,
            "type" : "VEC3"
        },
        {
            "bufferView" : 2,
            "componentType" : 5126,
            "count" : 89,
            "type" : "VEC2"
        },
        {
            "bufferView" : 3,
            "componentType" : 5123,
            "count" : 144,
            "type" : "SCALAR"
        },
        {
            "bufferView" : 5,
            "componentType" : 5126,
            "count" : 576,
            "max" : [
                7.4789910316467285,
                17.10637855529785,
                7.628684997558594
            ],
            "min" : [
                -8.042533874511719,
                -1.8247069120407104,
                -4.453080177307129
            ],
            "type" : "VEC3"
        },
        {
            "bufferView" : 6,
            "componentType" : 5126,
            "count" : 576,
            "type" : "VEC3"
        },
        {
            "bufferView" : 7,
            "componentType" : 5126,
            "count" : 576,
            "type" : "VEC2"
        },
        {
            "bufferView" : 8,
            "componentType" : 5123,
            "count" : 864,
            "type" : "SCALAR"
        },
        {
            "bufferView" : 10,
            "componentType" : 5126,
            "count" : 39,
            "max" : [
                1.5320348739624023,
                1.3667216300964355,
                1.5009613037109375
            ],
            "min" : [
                -1.597358226776123,
                -1.3177287578582764,
                -1.5009613037109375
            ],
            "type" : "VEC3"
        },
        {
            "bufferView" : 11,
            "componentType" : 5126,
            "count" : 39,
            "type" : "VEC3"
        },
        {
            "bufferView" : 12,
            "componentType" : 5126,
            "count" : 39,
            "type" : "VEC2"
        },
        {
            "bufferView" : 13,
            "componentType" : 5123,
            "count" : 144,
            "type" : "SCALAR"
        },
        {
            "bufferView" : 15,
            "componentType" : 5126,
            "count" : 380,
            "max" : [
                24.761629104614258,
                6.212333679199219,
                27.21889877319336
            ],
            "min" : [
                -22.08009147644043,
                -130.65701293945312,
                -38.88191604614258
            ],
            "type" : "VEC3"
        },
        {
            "bufferView" : 16,
            "componentType" : 5126,
            "count" : 380,
            "type" : "VEC3"
        },
        {
            "bufferView" : 17,
            "componentType" : 5126,
            "count" : 380,
            "type" : "VEC2"
        },
        {
            "bufferView" : 18,
            "componentType" : 5123,
            "count" : 576,
            "type" : "SCALAR"
        },
        {
            "bufferView" : 19,
            "componentType" : 5126,
            "count" : 64,
            "max" : [
                2.0619797706604004,
                0.9605640172958374,
                1.295029878616333
            ],
            "min" : [
                -1.5747718811035156,
                -1.7349592447280884,
                -2.37628173828125
            ],
            "type" : "VEC3"
        },
        {
            "bufferView" : 20,
            "componentType" : 5126,
            "count" : 64,
            "type" : "VEC3"
        },
        {
            "bufferView" : 21,
            "componentType" : 5126,
            "count" : 64,
            "type" : "VEC2"
        },
        {
            "bufferView" : 22,
            "componentType" : 5123,
            "count" : 96,
            "type" : "SCALAR"
        },
        {
            "bufferView" : 23,
            "componentType" : 5126,
            "count" : 64,
            "max" : [
                1.2324351072311401,
                0.5123329162597656,
                1.0388225317001343
            ],
            "min" : [
                -1.31625497341156,
                -1.2929730415344238,
                -1.0388225317001343
            ],
            "type" : "VEC3"
        },
        {
            "bufferView" : 24,
            "componentType" : 5126,
            "count" : 64,
            "type" : "VEC3"
        },
        {
            "bufferView" : 25,
            "componentType" : 5126,
            "count" : 64,
            "type" : "VEC2"
        },
        {
            "bufferView" : 26,
            "componentType" : 5123,
            "count" : 96,
            "type" : "SCALAR"
        },
        {
            "bufferView" : 27,
            "componentType" : 5126,
            "count" : 36,
            "max" : [
                2.0482099056243896,
                1,
                0.41474831104278564
            ],
            "min" : [
                -2.0482099056243896,
                -1,
                -0.41474831104278564
            ],
            "type" : "VEC3"
        },
        {
            "bufferView" : 28,
            "componentType" : 5126,
            "count" : 36,
            "type" : "VEC3"
        },
        {
            "bufferView" : 29,
            "componentType" : 5126,
            "count" : 36,
            "type" : "VEC2"
        },
        {
            "bufferView" : 30,
            "componentType" : 5123,
            "count" : 60,
            "type" : "SCALAR"
        },
        {
            "bufferView" : 32,
            "componentType" : 5126,
            "count" : 32,
            "max" : [
                0.3479573726654053,
                2.628124713897705,
                0.06126442924141884
            ],
            "min" : [
                -0.3479573726654053,
                -0.017235934734344482,
                -0.017372455447912216
            ],
            "type" : "VEC3"
        },
        {
            "bufferView" : 33,
            "componentType" : 5126,
            "count" : 32,
            "type" : "VEC3"
        },
        {
            "bufferView" : 34,
            "componentType" : 5126,
            "count" : 32,
            "type" : "VEC2"
        },
        {
            "bufferView" : 35,
            "componentType" : 5123,
            "count" : 48,
            "type" : "SCALAR"
        },
        {
            "bufferView" : 37,
            "componentType" : 5126,
            "count" : 22,
            "max" : [
                0.10905452072620392,
                1.4000334739685059,
                0.06126442551612854
            ],
            "min" : [
                -0.10905452072620392,
                -0.017235934734344482,
                -1.2053171396255493
            ],
            "type" : "VEC3"
        },
        {
            "bufferView" : 38,
            "componentType" : 5126,
            "count" : 22,
            "type" : "VEC3"
        },
        {
            "bufferView" : 39,
            "componentType" : 5126,
            "count" : 22,
            "type" : "VEC2"
        },
        {
            "bufferView" : 40,
            "componentType" : 5123,
            "count" : 36,
            "type" : "SCALAR"
        },
        {
            "bufferView" : 41,
            "componentType" : 5126,
            "count" : 96,
            "max" : [
                1.7597181797027588,
                2.3718600273132324,
                1.8361176252365112
            ],
            "min" : [
                -1.907364845275879,
                -0.5591405630111694,
                -0.5340836048126221
            ],
            "type" : "VEC3"
        },
        {
            "bufferView" : 42,
            "componentType" : 5126,
            "count" : 96,
            "type" : "VEC3"
        },
        {
            "bufferView" : 43,
            "componentType" : 5126,
            "count" : 96,
            "type" : "VEC2"
        },
        {
            "bufferView" : 44,
            "componentType" : 5123,
            "count" : 144,
            "type" : "SCALAR"
        }
    ],
    "bufferViews" : [
        {
            "buffer" : 0,
            "byteLength" : 1068,
            "byteOffset" : 0
        },
        {
            "buffer" : 0,
            "byteLength" : 1068,
            "byteOffset" : 1068
        },
        {
            "buffer" : 0,
            "byteLength" : 712,
            "byteOffset" : 2136
        },
        {
            "buffer" : 0,
            "byteLength" : 288,
            "byteOffset" : 2848
        },
        {
            "buffer" : 0,
            "byteLength" : 86393,
            "byteOffset" : 3136
        },
        {
            "buffer" : 0,
            "byteLength" : 6912,
            "byteOffset" : 89532
        },
        {
            "buffer" : 0,
            "byteLength" : 6912,
            "byteOffset" : 96444
        },
        {
            "buffer" : 0,
            "byteLength" : 4608,
            "byteOffset" : 103356
        },
        {
            "buffer" : 0,
            "byteLength" : 1728,
            "byteOffset" : 107964
        },
        {
            "buffer" : 0,
            "byteLength" : 53920,
            "byteOffset" : 109692
        },
        {
            "buffer" : 0,
            "byteLength" : 468,
            "byteOffset" : 163612
        },
        {
            "buffer" : 0,
            "byteLength" : 468,
            "byteOffset" : 164080
        },
        {
            "buffer" : 0,
            "byteLength" : 312,
            "byteOffset" : 164548
        },
        {
            "buffer" : 0,
            "byteLength" : 288,
            "byteOffset" : 164860
        },
        {
            "buffer" : 0,
            "byteLength" : 45975,
            "byteOffset" : 165148
        },
        {
            "buffer" : 0,
            "byteLength" : 4560,
            "byteOffset" : 211124
        },
        {
            "buffer" : 0,
            "byteLength" : 4560,
            "byteOffset" : 215684
        },
        {
            "buffer" : 0,
            "byteLength" : 3040,
            "byteOffset" : 220244
        },
        {
            "buffer" : 0,
            "byteLength" : 1152,
            "byteOffset" : 223284
        },
        {
            "buffer" : 0,
            "byteLength" : 768,
            "byteOffset" : 224436
        },
        {
            "buffer" : 0,
            "byteLength" : 768,
            "byteOffset" : 225204
        },
        {
            "buffer" : 0,
            "byteLength" : 512,
            "byteOffset" : 225972
        },
        {
            "buffer" : 0,
            "byteLength" : 192,
            "byteOffset" : 226484
        },
        {
            "buffer" : 0,
            "byteLength" : 768,
            "byteOffset" : 226676
        },
        {
            "buffer" : 0,
            "byteLength" : 768,
            "byteOffset" : 227444
        },
        {
            "buffer" : 0,
            "byteLength" : 512,
            "byteOffset" : 228212
        },
        {
            "buffer" : 0,
            "byteLength" : 192,
            "byteOffset" : 228724
        },
        {
            "buffer" : 0,
            "byteLength" : 432,
            "byteOffset" : 228916
        },
        {
            "buffer" : 0,
            "byteLength" : 432,
            "byteOffset" : 229348
        },
        {
            "buffer" : 0,
            "byteLength" : 288,
            "byteOffset" : 229780
        },
        {
            "buffer" : 0,
            "byteLength" : 120,
            "byteOffset" : 230068
        },
        {
            "buffer" : 0,
            "byteLength" : 44158,
            "byteOffset" : 230188
        },
        {
            "buffer" : 0,
            "byteLength" : 384,
            "byteOffset" : 274348
        },
        {
            "buffer" : 0,
            "byteLength" : 384,
            "byteOffset" : 274732
        },
        {
            "buffer" : 0,
            "byteLength" : 256,
            "byteOffset" : 275116
        },
        {
            "buffer" : 0,
            "byteLength" : 96,
            "byteOffset" : 275372
        },
        {
            "buffer" : 0,
            "byteLength" : 60337,
            "byteOffset" : 275468
        },
        {
            "buffer" : 0,
            "byteLength" : 264,
            "byteOffset" : 335808
        },
        {
            "buffer" : 0,
            "byteLength" : 264,
            "byteOffset" : 336072
        },
        {
            "buffer" : 0,
            "byteLength" : 176,
            "byteOffset" : 336336
        },
        {
            "buffer" : 0,
            "byteLength" : 72,
            "byteOffset" : 336512
        },
        {
            "buffer" : 0,
            "byteLength" : 1152,
            "byteOffset" : 336584
        },
        {
            "buffer" : 0,
            "byteLength" : 1152,
            "byteOffset" : 337736
        },
        {
            "buffer" : 0,
            "byteLength" : 768,
            "byteOffset" : 338888
        },
        {
            "buffer" : 0,
            "byteLength" : 288,
            "byteOffset" : 339656
        }
    ],
    "samplers" : [
        {
            "magFilter" : 9729,
            "minFilter" : 9987
        }
    ],
    "buffers" : [
        {
            "byteLength" : 339944,
            "uri" : "data:application/octet-stream;base64,"
        }
    ]
}
